<svg xmlns="http://www.w3.org/2000/svg" viewBox="0 0 32 32"><path d="M18.41 17.366l6.257-3.766a8.751 8.751 0 0 0-15.956-2.372z" fill="#0364b8"/><path d="M12.677 12.038A6.968 6.968 0 0 0 9 11h-.089a7 7 0 0 0-5.653 11l9.028-1.446 6.269-4.992z" fill="#0078d4"/><path d="M24.686 13.624a5.428 5.428 0 0 0-.384-.015 5.671 5.671 0 0 0-2.255.466l-3.5 1.474 3.866 4.913L29.309 22a5.688 5.688 0 0 0-4.623-8.372z" fill="#1490df"/><path d="M18.555 15.564L3.258 22A6.99 6.99 0 0 0 9 25h15.313a5.685 5.685 0 0 0 5.007-2.989z" fill="#28a8ea"/></svg>