<svg xmlns="http://www.w3.org/2000/svg" viewBox="0 0 16 16"><circle cx="7.5" cy="4.75" r="4.75" fill="#036c70"/><circle cx="12" cy="9" r="4" fill="#1a9ba1"/><circle cx="8" cy="12.75" r="3.25" fill="#37c6d0"/><path d="M10 4.003H2.825a4.718 4.718 0 0 0-.075.747A4.75 4.75 0 0 0 7.5 9.5c.146 0 .284-.03.427-.043.003.016.003.033.005.05A3.243 3.243 0 0 0 5.001 14H9a2 2 0 0 0 2-2V5.003a1 1 0 0 0-1-1z" opacity=".5"/><rect y="3" width="10" height="10" rx="1" fill="#038387"/><path d="M3.692 7.895a1.568 1.568 0 0 1-.478-.522 1.453 1.453 0 0 1-.167-.714 1.402 1.402 0 0 1 .31-.925 1.823 1.823 0 0 1 .824-.554A3.38 3.38 0 0 1 5.306 5a4.156 4.156 0 0 1 1.482.214v1.08a2.279 2.279 0 0 0-.67-.283 3.159 3.159 0 0 0-.785-.097 1.658 1.658 0 0 0-.805.176.547.547 0 0 0-.32.5.515.515 0 0 0 .135.354 1.236 1.236 0 0 0 .365.27q.23.117.684.31a.705.705 0 0 1 .098.041 5.573 5.573 0 0 1 .863.44 1.46 1.46 0 0 1 .694 1.328 1.52 1.52 0 0 1-.29.963 1.62 1.62 0 0 1-.777.538A3.418 3.418 0 0 1 4.875 11a5.657 5.657 0 0 1-1.002-.085 3.359 3.359 0 0 1-.814-.243v-1.14a2.583 2.583 0 0 0 .824.404 3.115 3.115 0 0 0 .905.15 1.52 1.52 0 0 0 .822-.18.572.572 0 0 0 .276-.508.551.551 0 0 0-.154-.389 1.573 1.573 0 0 0-.428-.307q-.272-.142-.806-.372a4.525 4.525 0 0 1-.806-.435z" fill="#fff"/></svg>