<svg xmlns="http://www.w3.org/2000/svg" viewBox="0 0 16 16"><path d="M15.122 6.003L12.18 6l-1.704.822v4.065a2.733 2.733 0 1 0 5.466 0V6.822a.82.82 0 0 0-.82-.82z" fill="#5059c9"/><circle cx="14" cy="3" r="2" fill="#5059c9"/><path d="M4.82 6h7.36a.82.82 0 0 1 .82.82v4.68A4.5 4.5 0 0 1 8.5 16 4.5 4.5 0 0 1 4 11.5V6.82A.82.82 0 0 1 4.82 6z" fill="#7b83eb"/><circle cx="9" cy="3" r="3" fill="#7b83eb"/><path d="M4 6.82v4.68a4.479 4.479 0 0 0 .756 2.497H8.97a2 2 0 0 0 2-2V6.002H4.758A.82.82 0 0 0 4 6.82z" opacity=".5"/><path d="M9.97 4H6.171a2.999 2.999 0 0 0 4.8 1.261v-.26a1 1 0 0 0-1-1z" opacity=".5"/><path d="M4 6.82v4.68a4.479 4.479 0 0 0 .756 2.497H8.97a2 2 0 0 0 2-2V6.002H4.758A.82.82 0 0 0 4 6.82z" opacity=".1"/><path d="M9.97 4H6.171a2.999 2.999 0 0 0 4.8 1.261v-.26a1 1 0 0 0-1-1z" opacity=".1"/><rect y="3" width="10" height="10" rx="1" fill="#4b53bc"/><path d="M8 6H6v5H5V6H3V5h5z" fill="#fff"/></svg>